<svg viewBox="0 0 32 32" fill="currentColor" width="32" height="32" xmlns="http://www.w3.org/2000/svg" xmlns:xlink="http://www.w3.org/1999/xlink">
    <path d="M27.9525 28.3025a1 1 0 0 1-1.2562 0.65L16 25.5487 5.3038 28.9525a1.0002 1.0002 0 1 1-0.6063-1.9062l8-2.5463-8-2.5475a1 1 0 1 1 0.6063-1.905L16 23.45l10.6963-3.4025a1 1 0 1 1 0.6062 1.905l-8 2.5475 8 2.5463a1 1 0 0 1 0.65 1.2562zM8.5 13.5c0-2.5125 1.2213-5.1087 3.53-7.5a19.5 19.5 0 0 1 3.4463-2.845 1 1 0 0 1 1.0475 0C16.8088 3.3238 23.5 7.51 23.5 13.5a7.5 7.5 0 0 1-15 0zM16 19a2 2 0 0 0 2-2c0-1.6962-1.25-3.0575-2-3.7237-0.75 0.6662-2 2.0275-2 3.7237a2 2 0 0 0 2 2zM10.5 13.5a5.4788 5.4788 0 0 0 1.5113 3.78C12.0113 17.1875 12 17.0938 12 17c0-3.5 3.305-5.7387 3.445-5.8325a1 1 0 0 1 1.11 0C16.695 11.2613 20 13.5 20 17c0 0.0938 0 0.1875-0.0112 0.28A5.4788 5.4788 0 0 0 21.5 13.5c0-4-4.0325-7.25-5.5-8.2925C14.5338 6.25 10.5 9.5 10.5 13.5z" />
</svg>