<svg viewBox="0 0 32 32" fill="currentColor" width="32" height="32" xmlns="http://www.w3.org/2000/svg" xmlns:xlink="http://www.w3.org/1999/xlink">
    <path d="M29.125 16.875a7.5 7.5 0 0 0-11.2025-4.4312l2.0487-8.18a1 1 0 0 0-0.4312-1.085 7.5 7.5 0 1 0-7.5787 12.935L3.8525 18.43a1 1 0 0 0-0.725 0.915 7.5 7.5 0 0 0 5.5525 7.5825 7.565 7.565 0 0 0 1.9525 0.2588 7.5088 7.5088 0 0 0 7.485-7.7501l6.06 5.865a1 1 0 0 0 1.1562 0.1688 7.5 7.5 0 0 0 3.7913-8.595zM14 16a2 2 0 1 1 2 2 2 2 0 0 1-2-2zM10 9.5a5.5 5.5 0 0 1 7.8438-4.9775L15.9713 12a4 4 0 0 0-3.49 2.1A5.4813 5.4813 0 0 1 10 9.5zM13.375 24.4463a5.5 5.5 0 0 1-8.2325-4.3038l7.4138-2.1175A4 4 0 0 0 16 20h0.1138a5.4775 5.4775 0 0 1-2.7388 4.4463zM26.6463 21.5713a5.49 5.49 0 0 1-1.625 1.7674l-5.54-5.3612a3.9888 3.9888 0 0 0-0.0738-4.0712 5.5 5.5 0 0 1 7.2388 7.665z" />
</svg>