<svg viewBox="0 0 32 32" fill="currentColor" width="32" height="32" xmlns="http://www.w3.org/2000/svg" xmlns:xlink="http://www.w3.org/1999/xlink">
    <path d="M22.9862 19.1675a7.2 7.2 0 0 1-5.82 5.8187A1.0938 1.0938 0 0 1 17 25a1 1 0 0 1-0.165-1.9862c2.0713-0.3488 3.8288-2.1063 4.18-4.1813a1 1 0 0 1 1.9712 0.335zM27 18a11 11 0 0 1-22 0c0-3.49 1.375-7.0587 4.0825-10.6062a1 1 0 0 1 1.4913-0.1113l3.015 2.9263 2.75-7.5513a1 1 0 0 1 1.5787-0.4262C20.6513 4.5 27 10.5688 27 18zM25 18c0-5.7612-4.4737-10.74-7.2762-13.2912L14.94 12.3425a1 1 0 0 1-1.6362 0.375L10.0075 9.52C8.0113 12.4012 7 15.25 7 18a9 9 0 0 0 18 0z" />
</svg>