<svg viewBox="0 0 32 32" fill="currentColor" width="32" height="32" xmlns="http://www.w3.org/2000/svg" xmlns:xlink="http://www.w3.org/1999/xlink">
    <path d="M14 9a4.9316 4.9316 0 0 0 4-1.9873 5.0192 5.0192 0 0 0 8 0A4.9316 4.9316 0 0 0 30 9V7a3.4376 3.4376 0 0 1-3.0513-2.3164A1.007 1.007 0 0 0 26 4a0.9894 0.9894 0 0 0-0.9468 0.6787A3.44 3.44 0 0 1 22 7a3.4376 3.4376 0 0 1-3.0513-2.3164A1.007 1.007 0 0 0 18 4a0.971 0.971 0 0 0-0.9468 0.6787A3.44 3.44 0 0 1 14 7h-1V6a4 4 0 0 0-8 0v11.2617A7.0126 7.0126 0 1 0 13.8735 18H14a4.9316 4.9316 0 0 0 4-1.9873 5.0192 5.0192 0 0 0 8 0A4.9316 4.9316 0 0 0 30 18v-2a3.4376 3.4376 0 0 1-3.0513-2.3164A1.007 1.007 0 0 0 26 13a0.9894 0.9894 0 0 0-0.9468 0.6787A3.44 3.44 0 0 1 22 16a3.4376 3.4376 0 0 1-3.0513-2.3164A1.007 1.007 0 0 0 18 13a0.971 0.971 0 0 0-0.9468 0.6787A3.44 3.44 0 0 1 14 16h-1V9zM7 6a2 2 0 0 1 4 0v6H7zM9 28a4.9965 4.9965 0 0 1-2.499-9.3252L7 18.3857V14h4v4.3857l0.499 0.2891A4.9965 4.9965 0 0 1 9 28z" />
</svg>